<svg width="45" height="45" viewBox="0 0 45 45" fill="none" xmlns="http://www.w3.org/2000/svg">
<rect x="1.27576" y="1.19043" width="42.4485" height="42.4485" rx="21.2243" stroke="#385CAD" stroke-width="2.23413"/>
<path fill-rule="evenodd" clip-rule="evenodd" d="M23.8412 10.3506C23.8412 9.61029 23.241 9.01013 22.5007 9.01013C21.7603 9.01013 21.1602 9.61029 21.1602 10.3506V15.0795C20.0527 14.0883 18.669 13.3995 17.1388 13.1428V13.0316C17.1388 12.2913 16.5386 11.6911 15.7983 11.6911C15.058 11.6911 14.4578 12.2913 14.4578 13.0316V15.7125V19.734V22.4149V23.7554C14.4578 24.7049 14.6224 25.616 14.9245 26.4617L17.174 24.3728C17.1507 24.1703 17.1388 23.9643 17.1388 23.7554V22.5838C17.6216 22.7081 18.0781 22.8979 18.4982 23.1432L20.5204 21.2655C19.5376 20.5515 18.387 20.0546 17.1388 19.8452V15.8815C19.33 16.4454 20.9791 18.3597 21.1463 20.6844L30.0598 12.4075C30.1292 12.3429 30.2012 12.2828 30.2755 12.2271C30.0308 11.9016 29.6416 11.6911 29.2031 11.6911C28.4627 11.6911 27.8626 12.2913 27.8626 13.0316V13.1428C26.3323 13.3995 24.9487 14.0883 23.8412 15.0795V10.3506ZM21.1602 31.687C20.1342 31.5149 19.174 31.1486 18.3188 30.627L20.4031 28.6915C20.6468 28.7952 20.8996 28.8814 21.1602 28.9484V27.9885L25.0805 24.3483C24.3066 25.2777 23.8412 26.473 23.8412 27.7768V28.9484C26.1538 28.3531 27.8626 26.2538 27.8626 23.7554V22.5838C27.2168 22.7501 26.618 23.0336 26.0905 23.4104L30.5436 19.2753V19.734V22.4149V23.7554C30.5436 27.7407 27.6451 31.049 23.8412 31.687V34.4792C23.8412 35.2196 23.241 35.8197 22.5007 35.8197C21.7603 35.8197 21.1602 35.2196 21.1602 34.4792V31.687ZM32.7963 15.3543C33.3387 14.8506 33.3701 14.0024 32.8664 13.4599C32.3626 12.9174 31.5145 12.886 30.972 13.3898L12.2052 30.816C11.6627 31.3197 11.6313 32.1679 12.135 32.7105C12.6388 33.253 13.487 33.2843 14.0295 32.7806L32.7963 15.3543Z" fill="#385CAD"/>
</svg>
